<?xml version="1.0" encoding="UTF-8" standalone="no"?>
<svg
   version="1.0"
   width="110.41696pt"
   height="119.10299pt"
   viewBox="0 0 110.41696 119.10299"
   preserveAspectRatio="xMidYMid"
   id="svg2"
   sodipodi:docname="cloud_nord_logo_blue.svg"
   inkscape:version="1.4.2 (ebf0e940d0, 2025-05-08)"
   xmlns:inkscape="http://www.inkscape.org/namespaces/inkscape"
   xmlns:sodipodi="http://sodipodi.sourceforge.net/DTD/sodipodi-0.dtd"
   xmlns="http://www.w3.org/2000/svg"
   xmlns:svg="http://www.w3.org/2000/svg">
  <defs
     id="defs2" />
  <sodipodi:namedview
     id="namedview2"
     pagecolor="#ffffff"
     bordercolor="#000000"
     borderopacity="0.25"
     inkscape:showpageshadow="2"
     inkscape:pageopacity="0.0"
     inkscape:pagecheckerboard="0"
     inkscape:deskcolor="#d1d1d1"
     inkscape:document-units="pt"
     inkscape:zoom="4.43625"
     inkscape:cx="-0.67624683"
     inkscape:cy="110.11553"
     inkscape:window-width="2544"
     inkscape:window-height="1385"
     inkscape:window-x="2568"
     inkscape:window-y="8"
     inkscape:window-maximized="0"
     inkscape:current-layer="g2" />
  <g
     transform="matrix(0.1,0,0,-0.1,0,200.07274)"
     fill="#2186ff"
     stroke="none"
     id="g2">
    <path
       d="m 439.99999,1977.6977 c -137,-33 -295,-152 -362.99999,-274 -58,-102 -76,-173 -77,-295 0,-123 10,-167 61,-274 48.99999,-104 159.99999,-215.00012 263.99999,-264.00012 106,-51 150,-61 269,-61 83,0 120,4 175,23 126,41 228.00001,112 299.00001,210.00012 50,68 48,119 -5,146 -50,26 -66,19 -141.00001,-61 -92,-96 -181,-143.00012 -292,-151.00012 -41,-3 -86,-3 -100,1 l -26,6 v 196.00012 c 0,115 4,193 9,190 5,-4 31,-45 58,-92 65,-116 91,-137 161,-132 41,4 60,11 80,32 l 27,26 2,244 2,244 4.4856,133.7429 c -14,4 50.8317,-30.2801 119.4557,-70.8243 34.00991,-22.1634 78.21191,-41.1036 108.78661,4.7513 23.872,35.8022 12.4722,56.1354 -44.9653,101.5579 -52.16921,36.9703 -85.47987,75.0492 -180.65547,110.9126 -12.165,4.5839 -132.99727,31.914 -204.13677,28.5434 -87.32007,-1.6044 -110.97037,0.3162 -205.97037,-22.6838 z m 238.5398,-141.5394 c 2.3266,-21.1326 0.65291,0.1157 4.4602,-56.4606 6,-45 -1,-346 -8,-341 -6,3 -33,46 -61,95 -66,115 -88,133 -158,128 -67,-6 -97,-33 -111,-100 -6,-27 -11,-151 -11,-276 v -226 l -44,43 c -208.99999,205 -146.99999,555 121,688 61,30 92.78179,45.3681 164.78179,50.3681 86,7 82.26406,3.9364 102.75801,-4.9075 z"
       id="path1"
       sodipodi:nodetypes="cccccscccccccscccccccccscsccccccccsccccc" />
  </g>
</svg>
