<svg width="545" height="545" viewBox="0 0 545 545" fill="none" xmlns="http://www.w3.org/2000/svg">
<rect width="545" height="545" fill="#10100E"/>
<path d="M278.909 407.973C203.55 407.973 148 357.529 148 273.015C148 188.501 204.519 137 277.368 137C358.361 137 397.053 198.625 397.053 267.381V288.245H211.165C215.259 334.068 238.677 360.038 278.909 360.038C308.445 360.038 326.8 346.304 335.428 321.346H395.512C384.331 376.853 337.981 407.929 278.865 407.929L278.909 407.973ZM213.19 246.032H334.899C334.899 213.943 316.544 185.42 277.324 185.42C243.21 185.42 220.277 206.284 213.146 246.032H213.19Z" fill="white"/>
<path d="M212.532 143H147.914V207.618H212.532V143Z" fill="#10100E"/>
<path d="M463.889 143H399.271V207.618H463.889V143Z" fill="#32B26E"/>
</svg>
